<mxfile host="app.diagrams.net" modified="2024-03-04T15:58:04.353Z" agent="Mozilla/5.0 (Windows NT 10.0; Win64; x64) AppleWebKit/537.36 (KHTML, like Gecko) Chrome/122.0.0.0 Safari/537.36 Edg/122.0.0.0" etag="CGV4MdMBDaAcXWKa6xA7" version="24.0.1" type="device">
  <diagram id="C5RBs43oDa-KdzZeNtuy" name="Page-1">
    <mxGraphModel dx="1289" dy="805" grid="1" gridSize="10" guides="1" tooltips="1" connect="1" arrows="1" fold="1" page="1" pageScale="1" pageWidth="1169" pageHeight="827" math="0" shadow="0">
      <root>
        <mxCell id="WIyWlLk6GJQsqaUBKTNV-0" />
        <mxCell id="WIyWlLk6GJQsqaUBKTNV-1" parent="WIyWlLk6GJQsqaUBKTNV-0" />
        <mxCell id="wHJqFlQBdB4jC7zEDMki-2" style="edgeStyle=orthogonalEdgeStyle;rounded=0;orthogonalLoop=1;jettySize=auto;html=1;exitX=1;exitY=0.5;exitDx=0;exitDy=0;entryX=1;entryY=0.5;entryDx=0;entryDy=0;" parent="WIyWlLk6GJQsqaUBKTNV-1" source="WIyWlLk6GJQsqaUBKTNV-11" edge="1">
          <mxGeometry relative="1" as="geometry">
            <mxPoint x="150" y="44" as="targetPoint" />
            <Array as="points">
              <mxPoint x="350" y="394" />
              <mxPoint x="350" y="44" />
            </Array>
          </mxGeometry>
        </mxCell>
        <mxCell id="wHJqFlQBdB4jC7zEDMki-3" value="" style="rounded=0;html=1;jettySize=auto;orthogonalLoop=1;fontSize=11;endArrow=block;endFill=0;endSize=8;strokeWidth=1;shadow=0;labelBackgroundColor=none;edgeStyle=orthogonalEdgeStyle;entryX=0.5;entryY=0;entryDx=0;entryDy=0;" parent="WIyWlLk6GJQsqaUBKTNV-1" source="wHJqFlQBdB4jC7zEDMki-4" target="RyZeqkLJaHpUHVhvsxop-51" edge="1">
          <mxGeometry relative="1" as="geometry" />
        </mxCell>
        <mxCell id="wHJqFlQBdB4jC7zEDMki-4" value="Create account with VodaLearn" style="rounded=1;whiteSpace=wrap;html=1;fontSize=12;glass=0;strokeWidth=1;shadow=0;" parent="WIyWlLk6GJQsqaUBKTNV-1" vertex="1">
          <mxGeometry x="70" y="18" width="120" height="40" as="geometry" />
        </mxCell>
        <mxCell id="wHJqFlQBdB4jC7zEDMki-6" value="No" style="edgeStyle=orthogonalEdgeStyle;rounded=0;html=1;jettySize=auto;orthogonalLoop=1;fontSize=11;endArrow=block;endFill=0;endSize=8;strokeWidth=1;shadow=0;labelBackgroundColor=none;entryX=0;entryY=0.5;entryDx=0;entryDy=0;" parent="WIyWlLk6GJQsqaUBKTNV-1" source="wHJqFlQBdB4jC7zEDMki-7" target="RyZeqkLJaHpUHVhvsxop-56" edge="1">
          <mxGeometry y="10" relative="1" as="geometry">
            <mxPoint as="offset" />
            <mxPoint x="235" y="187" as="targetPoint" />
          </mxGeometry>
        </mxCell>
        <mxCell id="RyZeqkLJaHpUHVhvsxop-83" value="" style="edgeStyle=orthogonalEdgeStyle;rounded=0;orthogonalLoop=1;jettySize=auto;html=1;" edge="1" parent="WIyWlLk6GJQsqaUBKTNV-1" source="wHJqFlQBdB4jC7zEDMki-7" target="wHJqFlQBdB4jC7zEDMki-20">
          <mxGeometry relative="1" as="geometry" />
        </mxCell>
        <mxCell id="RyZeqkLJaHpUHVhvsxop-84" value="Yes" style="edgeLabel;html=1;align=center;verticalAlign=middle;resizable=0;points=[];" vertex="1" connectable="0" parent="RyZeqkLJaHpUHVhvsxop-83">
          <mxGeometry x="-0.3867" relative="1" as="geometry">
            <mxPoint as="offset" />
          </mxGeometry>
        </mxCell>
        <mxCell id="wHJqFlQBdB4jC7zEDMki-7" value="Is cv in PDF format" style="rhombus;whiteSpace=wrap;html=1;shadow=0;fontFamily=Helvetica;fontSize=12;align=center;strokeWidth=1;spacing=6;spacingTop=-4;" parent="WIyWlLk6GJQsqaUBKTNV-1" vertex="1">
          <mxGeometry x="80" y="147.5" width="100" height="80" as="geometry" />
        </mxCell>
        <mxCell id="wHJqFlQBdB4jC7zEDMki-15" value="" style="endArrow=classic;html=1;rounded=0;exitX=0.5;exitY=0;exitDx=0;exitDy=0;" parent="WIyWlLk6GJQsqaUBKTNV-1" target="RyZeqkLJaHpUHVhvsxop-51" edge="1" source="RyZeqkLJaHpUHVhvsxop-56">
          <mxGeometry width="50" height="50" relative="1" as="geometry">
            <mxPoint x="325" y="171.5000000000001" as="sourcePoint" />
            <mxPoint x="290" y="62" as="targetPoint" />
            <Array as="points">
              <mxPoint x="295" y="105" />
            </Array>
          </mxGeometry>
        </mxCell>
        <mxCell id="RyZeqkLJaHpUHVhvsxop-0" value="" style="edgeStyle=orthogonalEdgeStyle;rounded=0;orthogonalLoop=1;jettySize=auto;html=1;entryX=0.5;entryY=0;entryDx=0;entryDy=0;" edge="1" parent="WIyWlLk6GJQsqaUBKTNV-1" source="wHJqFlQBdB4jC7zEDMki-20" target="RyZeqkLJaHpUHVhvsxop-82">
          <mxGeometry relative="1" as="geometry" />
        </mxCell>
        <mxCell id="wHJqFlQBdB4jC7zEDMki-20" value="Detect skills from cv&amp;nbsp;" style="rounded=0;whiteSpace=wrap;html=1;" parent="WIyWlLk6GJQsqaUBKTNV-1" vertex="1">
          <mxGeometry x="70" y="260" width="120" height="30" as="geometry" />
        </mxCell>
        <mxCell id="RyZeqkLJaHpUHVhvsxop-1" value="" style="edgeStyle=orthogonalEdgeStyle;rounded=0;orthogonalLoop=1;jettySize=auto;html=1;" edge="1" parent="WIyWlLk6GJQsqaUBKTNV-1" source="wHJqFlQBdB4jC7zEDMki-21" target="wHJqFlQBdB4jC7zEDMki-22">
          <mxGeometry relative="1" as="geometry" />
        </mxCell>
        <mxCell id="RyZeqkLJaHpUHVhvsxop-6" value="Yes" style="edgeLabel;html=1;align=center;verticalAlign=middle;resizable=0;points=[];" vertex="1" connectable="0" parent="RyZeqkLJaHpUHVhvsxop-1">
          <mxGeometry x="-0.0749" relative="1" as="geometry">
            <mxPoint as="offset" />
          </mxGeometry>
        </mxCell>
        <mxCell id="RyZeqkLJaHpUHVhvsxop-9" value="No" style="edgeStyle=orthogonalEdgeStyle;rounded=0;orthogonalLoop=1;jettySize=auto;html=1;" edge="1" parent="WIyWlLk6GJQsqaUBKTNV-1" source="wHJqFlQBdB4jC7zEDMki-21" target="RyZeqkLJaHpUHVhvsxop-8">
          <mxGeometry relative="1" as="geometry" />
        </mxCell>
        <mxCell id="wHJqFlQBdB4jC7zEDMki-21" value="Is skill&amp;nbsp;&lt;div&gt;level more than&amp;nbsp;&lt;/div&gt;&lt;div&gt;3/5&lt;/div&gt;" style="rhombus;whiteSpace=wrap;html=1;" parent="WIyWlLk6GJQsqaUBKTNV-1" vertex="1">
          <mxGeometry x="77.5" y="386.25" width="105" height="70.5" as="geometry" />
        </mxCell>
        <mxCell id="RyZeqkLJaHpUHVhvsxop-3" value="" style="edgeStyle=orthogonalEdgeStyle;rounded=0;orthogonalLoop=1;jettySize=auto;html=1;" edge="1" parent="WIyWlLk6GJQsqaUBKTNV-1" source="wHJqFlQBdB4jC7zEDMki-22" target="RyZeqkLJaHpUHVhvsxop-2">
          <mxGeometry relative="1" as="geometry" />
        </mxCell>
        <mxCell id="wHJqFlQBdB4jC7zEDMki-22" value="Quiz to verify skill level" style="rounded=0;whiteSpace=wrap;html=1;" parent="WIyWlLk6GJQsqaUBKTNV-1" vertex="1">
          <mxGeometry x="70" y="490" width="120" height="60" as="geometry" />
        </mxCell>
        <mxCell id="RyZeqkLJaHpUHVhvsxop-5" value="" style="edgeStyle=orthogonalEdgeStyle;rounded=0;orthogonalLoop=1;jettySize=auto;html=1;entryX=0.5;entryY=0;entryDx=0;entryDy=0;" edge="1" parent="WIyWlLk6GJQsqaUBKTNV-1" source="RyZeqkLJaHpUHVhvsxop-2" target="RyZeqkLJaHpUHVhvsxop-10">
          <mxGeometry relative="1" as="geometry">
            <mxPoint x="130" y="708" as="targetPoint" />
          </mxGeometry>
        </mxCell>
        <mxCell id="RyZeqkLJaHpUHVhvsxop-7" value="Yes" style="edgeLabel;html=1;align=center;verticalAlign=middle;resizable=0;points=[];" vertex="1" connectable="0" parent="RyZeqkLJaHpUHVhvsxop-5">
          <mxGeometry x="0.0314" y="-2" relative="1" as="geometry">
            <mxPoint as="offset" />
          </mxGeometry>
        </mxCell>
        <mxCell id="RyZeqkLJaHpUHVhvsxop-87" value="No" style="edgeStyle=orthogonalEdgeStyle;rounded=0;orthogonalLoop=1;jettySize=auto;html=1;exitX=1;exitY=0.5;exitDx=0;exitDy=0;entryX=0.5;entryY=1;entryDx=0;entryDy=0;" edge="1" parent="WIyWlLk6GJQsqaUBKTNV-1" source="RyZeqkLJaHpUHVhvsxop-2" target="RyZeqkLJaHpUHVhvsxop-8">
          <mxGeometry x="-0.5414" relative="1" as="geometry">
            <mxPoint x="-1" as="offset" />
          </mxGeometry>
        </mxCell>
        <mxCell id="RyZeqkLJaHpUHVhvsxop-2" value="Is quiz&lt;div&gt;&amp;nbsp;&lt;span style=&quot;background-color: initial;&quot;&gt;result less than 70%&lt;/span&gt;&lt;/div&gt;" style="rhombus;whiteSpace=wrap;html=1;rounded=0;" vertex="1" parent="WIyWlLk6GJQsqaUBKTNV-1">
          <mxGeometry x="80" y="580" width="100" height="83.5" as="geometry" />
        </mxCell>
        <mxCell id="RyZeqkLJaHpUHVhvsxop-8" value="Set skill level (per skill detected) and generate relevant courses with gpt model and detected skills" style="rounded=1;whiteSpace=wrap;html=1;arcSize=39;" vertex="1" parent="WIyWlLk6GJQsqaUBKTNV-1">
          <mxGeometry x="240" y="391.5" width="150" height="60" as="geometry" />
        </mxCell>
        <mxCell id="RyZeqkLJaHpUHVhvsxop-12" style="edgeStyle=orthogonalEdgeStyle;rounded=0;orthogonalLoop=1;jettySize=auto;html=1;entryX=0.5;entryY=1;entryDx=0;entryDy=0;" edge="1" parent="WIyWlLk6GJQsqaUBKTNV-1" source="RyZeqkLJaHpUHVhvsxop-10" target="RyZeqkLJaHpUHVhvsxop-8">
          <mxGeometry relative="1" as="geometry" />
        </mxCell>
        <mxCell id="RyZeqkLJaHpUHVhvsxop-10" value="&lt;span style=&quot;color: rgb(0, 0, 0); font-family: Helvetica; font-size: 12px; font-style: normal; font-variant-ligatures: normal; font-variant-caps: normal; font-weight: 400; letter-spacing: normal; orphans: 2; text-align: center; text-indent: 0px; text-transform: none; widows: 2; word-spacing: 0px; -webkit-text-stroke-width: 0px; white-space: normal; background-color: rgb(251, 251, 251); text-decoration-thickness: initial; text-decoration-style: initial; text-decoration-color: initial; display: inline !important; float: none;&quot;&gt;&lt;br&gt;&lt;/span&gt;&lt;div&gt;&lt;span style=&quot;color: rgb(0, 0, 0); font-family: Helvetica; font-size: 12px; font-style: normal; font-variant-ligatures: normal; font-variant-caps: normal; font-weight: 400; letter-spacing: normal; orphans: 2; text-align: center; text-indent: 0px; text-transform: none; widows: 2; word-spacing: 0px; -webkit-text-stroke-width: 0px; white-space: normal; background-color: rgb(251, 251, 251); text-decoration-thickness: initial; text-decoration-style: initial; text-decoration-color: initial; display: inline !important; float: none;&quot;&gt;Decrease skill point by one&lt;/span&gt;&lt;br&gt;&lt;br&gt;&lt;/div&gt;" style="rounded=0;whiteSpace=wrap;html=1;" vertex="1" parent="WIyWlLk6GJQsqaUBKTNV-1">
          <mxGeometry x="70" y="700" width="120" height="50" as="geometry" />
        </mxCell>
        <mxCell id="RyZeqkLJaHpUHVhvsxop-59" value="" style="edgeStyle=orthogonalEdgeStyle;rounded=0;orthogonalLoop=1;jettySize=auto;html=1;" edge="1" parent="WIyWlLk6GJQsqaUBKTNV-1" source="RyZeqkLJaHpUHVhvsxop-13" target="RyZeqkLJaHpUHVhvsxop-57">
          <mxGeometry relative="1" as="geometry" />
        </mxCell>
        <mxCell id="RyZeqkLJaHpUHVhvsxop-13" value="Select a course via search bar/ on home screen" style="rounded=1;whiteSpace=wrap;html=1;" vertex="1" parent="WIyWlLk6GJQsqaUBKTNV-1">
          <mxGeometry x="510" y="18" width="120" height="50" as="geometry" />
        </mxCell>
        <mxCell id="RyZeqkLJaHpUHVhvsxop-18" value="Yes" style="edgeStyle=orthogonalEdgeStyle;rounded=0;orthogonalLoop=1;jettySize=auto;html=1;entryX=0;entryY=0.5;entryDx=0;entryDy=0;" edge="1" parent="WIyWlLk6GJQsqaUBKTNV-1" target="RyZeqkLJaHpUHVhvsxop-21">
          <mxGeometry relative="1" as="geometry">
            <mxPoint x="610" y="433.5" as="sourcePoint" />
            <mxPoint x="690" y="433.5" as="targetPoint" />
          </mxGeometry>
        </mxCell>
        <mxCell id="RyZeqkLJaHpUHVhvsxop-24" style="edgeStyle=orthogonalEdgeStyle;rounded=0;orthogonalLoop=1;jettySize=auto;html=1;entryX=0;entryY=0.5;entryDx=0;entryDy=0;dashed=1;dashPattern=1 2;" edge="1" parent="WIyWlLk6GJQsqaUBKTNV-1" source="RyZeqkLJaHpUHVhvsxop-19" target="RyZeqkLJaHpUHVhvsxop-20">
          <mxGeometry relative="1" as="geometry">
            <Array as="points">
              <mxPoint x="1030" y="376" />
              <mxPoint x="490" y="376" />
              <mxPoint x="490" y="434" />
            </Array>
          </mxGeometry>
        </mxCell>
        <mxCell id="RyZeqkLJaHpUHVhvsxop-19" value="Extend the course and retest the user" style="rounded=0;whiteSpace=wrap;html=1;" vertex="1" parent="WIyWlLk6GJQsqaUBKTNV-1">
          <mxGeometry x="980" y="403.5" width="120" height="60" as="geometry" />
        </mxCell>
        <mxCell id="RyZeqkLJaHpUHVhvsxop-36" value="" style="edgeStyle=orthogonalEdgeStyle;rounded=0;orthogonalLoop=1;jettySize=auto;html=1;" edge="1" parent="WIyWlLk6GJQsqaUBKTNV-1" source="RyZeqkLJaHpUHVhvsxop-20" target="RyZeqkLJaHpUHVhvsxop-35">
          <mxGeometry relative="1" as="geometry" />
        </mxCell>
        <mxCell id="RyZeqkLJaHpUHVhvsxop-37" value="No" style="edgeLabel;html=1;align=center;verticalAlign=middle;resizable=0;points=[];" vertex="1" connectable="0" parent="RyZeqkLJaHpUHVhvsxop-36">
          <mxGeometry x="-0.2905" y="-5" relative="1" as="geometry">
            <mxPoint x="5" as="offset" />
          </mxGeometry>
        </mxCell>
        <mxCell id="RyZeqkLJaHpUHVhvsxop-20" value="&lt;br&gt;&lt;div&gt;Is course completed&lt;br&gt;&lt;/div&gt;&lt;div&gt;&lt;br&gt;&lt;/div&gt;" style="rhombus;whiteSpace=wrap;html=1;" vertex="1" parent="WIyWlLk6GJQsqaUBKTNV-1">
          <mxGeometry x="530" y="393.5" width="80" height="80" as="geometry" />
        </mxCell>
        <mxCell id="RyZeqkLJaHpUHVhvsxop-39" value="Yes" style="edgeStyle=orthogonalEdgeStyle;rounded=0;orthogonalLoop=1;jettySize=auto;html=1;" edge="1" parent="WIyWlLk6GJQsqaUBKTNV-1" source="RyZeqkLJaHpUHVhvsxop-21" target="RyZeqkLJaHpUHVhvsxop-38">
          <mxGeometry x="-0.0533" relative="1" as="geometry">
            <mxPoint as="offset" />
          </mxGeometry>
        </mxCell>
        <mxCell id="RyZeqkLJaHpUHVhvsxop-21" value="&lt;div&gt;&lt;br&gt;&lt;/div&gt;&lt;div&gt;&lt;br&gt;&lt;/div&gt;&lt;div&gt;Has the&amp;nbsp;&lt;/div&gt;&lt;div&gt;user achieved&lt;/div&gt;&lt;div&gt;&amp;nbsp;at least 50%&lt;br&gt;&lt;/div&gt;&lt;div&gt;&lt;br&gt;&lt;/div&gt;&lt;div&gt;&lt;br&gt;&lt;/div&gt;" style="rhombus;whiteSpace=wrap;html=1;" vertex="1" parent="WIyWlLk6GJQsqaUBKTNV-1">
          <mxGeometry x="660" y="390" width="120" height="90" as="geometry" />
        </mxCell>
        <mxCell id="RyZeqkLJaHpUHVhvsxop-26" value="No" style="endArrow=classic;html=1;rounded=0;entryX=0;entryY=0.5;entryDx=0;entryDy=0;exitX=1;exitY=0.5;exitDx=0;exitDy=0;" edge="1" parent="WIyWlLk6GJQsqaUBKTNV-1" source="RyZeqkLJaHpUHVhvsxop-21" target="RyZeqkLJaHpUHVhvsxop-27">
          <mxGeometry width="50" height="50" relative="1" as="geometry">
            <mxPoint x="530" y="549.5" as="sourcePoint" />
            <mxPoint x="580" y="499.5" as="targetPoint" />
          </mxGeometry>
        </mxCell>
        <mxCell id="RyZeqkLJaHpUHVhvsxop-28" value="" style="edgeStyle=orthogonalEdgeStyle;rounded=0;orthogonalLoop=1;jettySize=auto;html=1;" edge="1" parent="WIyWlLk6GJQsqaUBKTNV-1" source="RyZeqkLJaHpUHVhvsxop-27" target="RyZeqkLJaHpUHVhvsxop-19">
          <mxGeometry relative="1" as="geometry" />
        </mxCell>
        <mxCell id="RyZeqkLJaHpUHVhvsxop-34" value="No" style="edgeLabel;html=1;align=center;verticalAlign=middle;resizable=0;points=[];" vertex="1" connectable="0" parent="RyZeqkLJaHpUHVhvsxop-28">
          <mxGeometry x="-0.1809" y="1" relative="1" as="geometry">
            <mxPoint as="offset" />
          </mxGeometry>
        </mxCell>
        <mxCell id="RyZeqkLJaHpUHVhvsxop-30" value="" style="edgeStyle=orthogonalEdgeStyle;rounded=0;orthogonalLoop=1;jettySize=auto;html=1;entryX=0;entryY=0.5;entryDx=0;entryDy=0;exitX=0.5;exitY=0;exitDx=0;exitDy=0;" edge="1" parent="WIyWlLk6GJQsqaUBKTNV-1" source="RyZeqkLJaHpUHVhvsxop-27" target="RyZeqkLJaHpUHVhvsxop-29">
          <mxGeometry relative="1" as="geometry">
            <Array as="points">
              <mxPoint x="880" y="309" />
            </Array>
          </mxGeometry>
        </mxCell>
        <mxCell id="RyZeqkLJaHpUHVhvsxop-33" value="Yes" style="edgeLabel;html=1;align=center;verticalAlign=middle;resizable=0;points=[];" vertex="1" connectable="0" parent="RyZeqkLJaHpUHVhvsxop-30">
          <mxGeometry x="-0.1744" y="-1" relative="1" as="geometry">
            <mxPoint x="-1" y="18" as="offset" />
          </mxGeometry>
        </mxCell>
        <mxCell id="RyZeqkLJaHpUHVhvsxop-27" value="Is this the&lt;div&gt;&amp;nbsp;second attempt at the course&lt;/div&gt;" style="rhombus;whiteSpace=wrap;html=1;" vertex="1" parent="WIyWlLk6GJQsqaUBKTNV-1">
          <mxGeometry x="820" y="388.5" width="120" height="91.5" as="geometry" />
        </mxCell>
        <mxCell id="RyZeqkLJaHpUHVhvsxop-29" value="New course generated that focuses on problem areas available on homescreen" style="whiteSpace=wrap;html=1;" vertex="1" parent="WIyWlLk6GJQsqaUBKTNV-1">
          <mxGeometry x="930" y="279" width="160" height="60" as="geometry" />
        </mxCell>
        <mxCell id="RyZeqkLJaHpUHVhvsxop-35" value="Save progress and Display course on home screen with percentage of course completed&amp;nbsp;" style="rounded=1;whiteSpace=wrap;html=1;" vertex="1" parent="WIyWlLk6GJQsqaUBKTNV-1">
          <mxGeometry x="495" y="538" width="150" height="60" as="geometry" />
        </mxCell>
        <mxCell id="RyZeqkLJaHpUHVhvsxop-42" value="" style="edgeStyle=orthogonalEdgeStyle;rounded=0;orthogonalLoop=1;jettySize=auto;html=1;" edge="1" parent="WIyWlLk6GJQsqaUBKTNV-1" source="RyZeqkLJaHpUHVhvsxop-38" target="RyZeqkLJaHpUHVhvsxop-41">
          <mxGeometry relative="1" as="geometry" />
        </mxCell>
        <mxCell id="RyZeqkLJaHpUHVhvsxop-43" value="Yes" style="edgeLabel;html=1;align=center;verticalAlign=middle;resizable=0;points=[];" vertex="1" connectable="0" parent="RyZeqkLJaHpUHVhvsxop-42">
          <mxGeometry x="-0.6456" y="-4" relative="1" as="geometry">
            <mxPoint x="4" y="15" as="offset" />
          </mxGeometry>
        </mxCell>
        <mxCell id="RyZeqkLJaHpUHVhvsxop-45" value="" style="edgeStyle=orthogonalEdgeStyle;rounded=0;orthogonalLoop=1;jettySize=auto;html=1;" edge="1" parent="WIyWlLk6GJQsqaUBKTNV-1" source="RyZeqkLJaHpUHVhvsxop-38" target="RyZeqkLJaHpUHVhvsxop-44">
          <mxGeometry relative="1" as="geometry" />
        </mxCell>
        <mxCell id="RyZeqkLJaHpUHVhvsxop-46" value="No" style="edgeLabel;html=1;align=center;verticalAlign=middle;resizable=0;points=[];" vertex="1" connectable="0" parent="RyZeqkLJaHpUHVhvsxop-45">
          <mxGeometry x="-0.3702" relative="1" as="geometry">
            <mxPoint as="offset" />
          </mxGeometry>
        </mxCell>
        <mxCell id="RyZeqkLJaHpUHVhvsxop-38" value="Has the&lt;div&gt;&amp;nbsp;user scored&amp;nbsp;&lt;/div&gt;&lt;div&gt;between&lt;/div&gt;&lt;div&gt;&amp;nbsp;50-80%&lt;/div&gt;" style="rhombus;whiteSpace=wrap;html=1;" vertex="1" parent="WIyWlLk6GJQsqaUBKTNV-1">
          <mxGeometry x="660" y="522.25" width="120" height="91.5" as="geometry" />
        </mxCell>
        <mxCell id="RyZeqkLJaHpUHVhvsxop-41" value="Courses under that skill will be generated to include problem areas" style="whiteSpace=wrap;html=1;" vertex="1" parent="WIyWlLk6GJQsqaUBKTNV-1">
          <mxGeometry x="660" y="654" width="120" height="60" as="geometry" />
        </mxCell>
        <mxCell id="RyZeqkLJaHpUHVhvsxop-44" value="Gold Star awarded for that course" style="whiteSpace=wrap;html=1;" vertex="1" parent="WIyWlLk6GJQsqaUBKTNV-1">
          <mxGeometry x="820" y="538" width="120" height="60" as="geometry" />
        </mxCell>
        <mxCell id="RyZeqkLJaHpUHVhvsxop-47" value="Take percentage from completed course and update leaderboard" style="rounded=1;whiteSpace=wrap;html=1;" vertex="1" parent="WIyWlLk6GJQsqaUBKTNV-1">
          <mxGeometry x="660" y="750" width="120" height="60" as="geometry" />
        </mxCell>
        <mxCell id="RyZeqkLJaHpUHVhvsxop-48" value="" style="endArrow=classic;html=1;rounded=0;exitX=1;exitY=0.5;exitDx=0;exitDy=0;entryX=1;entryY=0.5;entryDx=0;entryDy=0;" edge="1" parent="WIyWlLk6GJQsqaUBKTNV-1" source="RyZeqkLJaHpUHVhvsxop-29" target="RyZeqkLJaHpUHVhvsxop-47">
          <mxGeometry width="50" height="50" relative="1" as="geometry">
            <mxPoint x="1140" y="354" as="sourcePoint" />
            <mxPoint x="920" y="770" as="targetPoint" />
            <Array as="points">
              <mxPoint x="1150" y="309" />
              <mxPoint x="1150" y="780" />
            </Array>
          </mxGeometry>
        </mxCell>
        <mxCell id="RyZeqkLJaHpUHVhvsxop-49" value="" style="endArrow=classic;html=1;rounded=0;exitX=0.5;exitY=1;exitDx=0;exitDy=0;entryX=0.5;entryY=0;entryDx=0;entryDy=0;" edge="1" parent="WIyWlLk6GJQsqaUBKTNV-1" source="RyZeqkLJaHpUHVhvsxop-41" target="RyZeqkLJaHpUHVhvsxop-47">
          <mxGeometry width="50" height="50" relative="1" as="geometry">
            <mxPoint x="545" y="719.5" as="sourcePoint" />
            <mxPoint x="720" y="750" as="targetPoint" />
            <Array as="points" />
          </mxGeometry>
        </mxCell>
        <mxCell id="RyZeqkLJaHpUHVhvsxop-50" value="" style="endArrow=classic;html=1;rounded=0;exitX=0.5;exitY=1;exitDx=0;exitDy=0;entryX=1;entryY=0.5;entryDx=0;entryDy=0;" edge="1" parent="WIyWlLk6GJQsqaUBKTNV-1" source="RyZeqkLJaHpUHVhvsxop-44" target="RyZeqkLJaHpUHVhvsxop-47">
          <mxGeometry width="50" height="50" relative="1" as="geometry">
            <mxPoint x="660" y="669.5" as="sourcePoint" />
            <mxPoint x="780" y="790" as="targetPoint" />
            <Array as="points">
              <mxPoint x="880" y="780" />
            </Array>
          </mxGeometry>
        </mxCell>
        <mxCell id="RyZeqkLJaHpUHVhvsxop-51" value="&lt;br&gt;&lt;div&gt;&lt;span style=&quot;color: rgb(0, 0, 0); font-family: Helvetica; font-size: 12px; font-style: normal; font-variant-ligatures: normal; font-variant-caps: normal; font-weight: 400; letter-spacing: normal; orphans: 2; text-align: center; text-indent: 0px; text-transform: none; widows: 2; word-spacing: 0px; -webkit-text-stroke-width: 0px; white-space: normal; background-color: rgb(251, 251, 251); text-decoration-thickness: initial; text-decoration-style: initial; text-decoration-color: initial; display: inline !important; float: none;&quot;&gt;Drag &amp;amp; Drop /Upload CV&lt;/span&gt;&lt;br&gt;&lt;br&gt;&lt;/div&gt;" style="shape=parallelogram;perimeter=parallelogramPerimeter;whiteSpace=wrap;html=1;fixedSize=1;" vertex="1" parent="WIyWlLk6GJQsqaUBKTNV-1">
          <mxGeometry x="40" y="90" width="180" height="30" as="geometry" />
        </mxCell>
        <mxCell id="RyZeqkLJaHpUHVhvsxop-55" value="" style="endArrow=classic;html=1;rounded=0;entryX=0.5;entryY=0;entryDx=0;entryDy=0;" edge="1" parent="WIyWlLk6GJQsqaUBKTNV-1" source="RyZeqkLJaHpUHVhvsxop-51" target="wHJqFlQBdB4jC7zEDMki-7">
          <mxGeometry width="50" height="50" relative="1" as="geometry">
            <mxPoint x="180" y="358" as="sourcePoint" />
            <mxPoint x="230" y="308" as="targetPoint" />
          </mxGeometry>
        </mxCell>
        <mxCell id="RyZeqkLJaHpUHVhvsxop-56" value="&lt;div&gt;&lt;br&gt;&lt;/div&gt;&lt;span style=&quot;color: rgb(0, 0, 0); font-family: Helvetica; font-size: 12px; font-style: normal; font-variant-ligatures: normal; font-variant-caps: normal; font-weight: 400; letter-spacing: normal; orphans: 2; text-align: center; text-indent: 0px; text-transform: none; widows: 2; word-spacing: 0px; -webkit-text-stroke-width: 0px; white-space: normal; background-color: rgb(251, 251, 251); text-decoration-thickness: initial; text-decoration-style: initial; text-decoration-color: initial; display: inline !important; float: none;&quot;&gt;Prompt user to upload a pdf cv&lt;/span&gt;&lt;div&gt;&lt;br&gt;&lt;/div&gt;" style="rounded=0;whiteSpace=wrap;html=1;" vertex="1" parent="WIyWlLk6GJQsqaUBKTNV-1">
          <mxGeometry x="230" y="162" width="130" height="51" as="geometry" />
        </mxCell>
        <mxCell id="RyZeqkLJaHpUHVhvsxop-66" value="" style="edgeStyle=orthogonalEdgeStyle;rounded=0;orthogonalLoop=1;jettySize=auto;html=1;" edge="1" parent="WIyWlLk6GJQsqaUBKTNV-1" source="RyZeqkLJaHpUHVhvsxop-57" target="RyZeqkLJaHpUHVhvsxop-64">
          <mxGeometry relative="1" as="geometry" />
        </mxCell>
        <mxCell id="RyZeqkLJaHpUHVhvsxop-57" value="Review content and answer questions" style="shape=parallelogram;perimeter=parallelogramPerimeter;whiteSpace=wrap;html=1;fixedSize=1;" vertex="1" parent="WIyWlLk6GJQsqaUBKTNV-1">
          <mxGeometry x="480" y="93" width="180" height="40" as="geometry" />
        </mxCell>
        <mxCell id="RyZeqkLJaHpUHVhvsxop-63" value="" style="edgeStyle=orthogonalEdgeStyle;rounded=0;orthogonalLoop=1;jettySize=auto;html=1;" edge="1" parent="WIyWlLk6GJQsqaUBKTNV-1" source="RyZeqkLJaHpUHVhvsxop-60" target="RyZeqkLJaHpUHVhvsxop-20">
          <mxGeometry relative="1" as="geometry" />
        </mxCell>
        <mxCell id="RyZeqkLJaHpUHVhvsxop-60" value="Exit course" style="rounded=0;whiteSpace=wrap;html=1;" vertex="1" parent="WIyWlLk6GJQsqaUBKTNV-1">
          <mxGeometry x="510" y="309.75" width="120" height="30.5" as="geometry" />
        </mxCell>
        <mxCell id="RyZeqkLJaHpUHVhvsxop-69" value="No" style="edgeStyle=orthogonalEdgeStyle;rounded=0;orthogonalLoop=1;jettySize=auto;html=1;" edge="1" parent="WIyWlLk6GJQsqaUBKTNV-1" source="RyZeqkLJaHpUHVhvsxop-64" target="RyZeqkLJaHpUHVhvsxop-68">
          <mxGeometry relative="1" as="geometry" />
        </mxCell>
        <mxCell id="RyZeqkLJaHpUHVhvsxop-64" value="Has the&lt;div&gt;&amp;nbsp;user answered&lt;/div&gt;&lt;div&gt;&amp;nbsp;the question&amp;nbsp;&lt;/div&gt;&lt;div&gt;correctly?&lt;/div&gt;" style="rhombus;whiteSpace=wrap;html=1;" vertex="1" parent="WIyWlLk6GJQsqaUBKTNV-1">
          <mxGeometry x="510" y="153" width="120" height="90" as="geometry" />
        </mxCell>
        <mxCell id="RyZeqkLJaHpUHVhvsxop-70" value="" style="edgeStyle=orthogonalEdgeStyle;rounded=0;orthogonalLoop=1;jettySize=auto;html=1;" edge="1" parent="WIyWlLk6GJQsqaUBKTNV-1" source="RyZeqkLJaHpUHVhvsxop-65" target="RyZeqkLJaHpUHVhvsxop-60">
          <mxGeometry relative="1" as="geometry" />
        </mxCell>
        <mxCell id="RyZeqkLJaHpUHVhvsxop-71" value="No" style="edgeLabel;html=1;align=center;verticalAlign=middle;resizable=0;points=[];" vertex="1" connectable="0" parent="RyZeqkLJaHpUHVhvsxop-70">
          <mxGeometry x="-0.2244" relative="1" as="geometry">
            <mxPoint as="offset" />
          </mxGeometry>
        </mxCell>
        <mxCell id="RyZeqkLJaHpUHVhvsxop-77" style="edgeStyle=orthogonalEdgeStyle;rounded=0;orthogonalLoop=1;jettySize=auto;html=1;exitX=0.992;exitY=0.58;exitDx=0;exitDy=0;exitPerimeter=0;" edge="1" parent="WIyWlLk6GJQsqaUBKTNV-1" source="RyZeqkLJaHpUHVhvsxop-65" target="RyZeqkLJaHpUHVhvsxop-57">
          <mxGeometry relative="1" as="geometry">
            <Array as="points">
              <mxPoint x="860" y="332" />
              <mxPoint x="860" y="113" />
            </Array>
          </mxGeometry>
        </mxCell>
        <mxCell id="RyZeqkLJaHpUHVhvsxop-78" value="Yes" style="edgeLabel;html=1;align=center;verticalAlign=middle;resizable=0;points=[];" vertex="1" connectable="0" parent="RyZeqkLJaHpUHVhvsxop-77">
          <mxGeometry x="-0.1592" relative="1" as="geometry">
            <mxPoint as="offset" />
          </mxGeometry>
        </mxCell>
        <mxCell id="RyZeqkLJaHpUHVhvsxop-65" value="&amp;nbsp;Would&amp;nbsp;&lt;div&gt;the&amp;nbsp;&lt;span style=&quot;background-color: initial;&quot;&gt;user&lt;/span&gt;&lt;span style=&quot;background-color: initial;&quot;&gt;&amp;nbsp;like to&amp;nbsp;&lt;/span&gt;&lt;div&gt;&lt;span style=&quot;background-color: initial;&quot;&gt;continue?&lt;/span&gt;&lt;/div&gt;&lt;/div&gt;" style="rhombus;whiteSpace=wrap;html=1;" vertex="1" parent="WIyWlLk6GJQsqaUBKTNV-1">
          <mxGeometry x="720" y="280" width="100" height="90" as="geometry" />
        </mxCell>
        <mxCell id="RyZeqkLJaHpUHVhvsxop-72" value="" style="edgeStyle=orthogonalEdgeStyle;rounded=0;orthogonalLoop=1;jettySize=auto;html=1;" edge="1" parent="WIyWlLk6GJQsqaUBKTNV-1" source="RyZeqkLJaHpUHVhvsxop-68" target="RyZeqkLJaHpUHVhvsxop-65">
          <mxGeometry relative="1" as="geometry" />
        </mxCell>
        <mxCell id="RyZeqkLJaHpUHVhvsxop-68" value="Store incorrect questions and view on user profile" style="whiteSpace=wrap;html=1;" vertex="1" parent="WIyWlLk6GJQsqaUBKTNV-1">
          <mxGeometry x="710" y="168" width="120" height="60" as="geometry" />
        </mxCell>
        <mxCell id="RyZeqkLJaHpUHVhvsxop-73" value="Yes" style="endArrow=classic;html=1;rounded=0;exitX=0.5;exitY=1;exitDx=0;exitDy=0;entryX=0.5;entryY=0;entryDx=0;entryDy=0;" edge="1" parent="WIyWlLk6GJQsqaUBKTNV-1" source="RyZeqkLJaHpUHVhvsxop-64" target="RyZeqkLJaHpUHVhvsxop-65">
          <mxGeometry width="50" height="50" relative="1" as="geometry">
            <mxPoint x="680" y="329" as="sourcePoint" />
            <mxPoint x="770" y="259" as="targetPoint" />
            <Array as="points">
              <mxPoint x="570" y="279" />
            </Array>
          </mxGeometry>
        </mxCell>
        <mxCell id="RyZeqkLJaHpUHVhvsxop-82" value="Prompt user on their skill&amp;nbsp;&lt;div&gt;level (per detected skill)&lt;/div&gt;" style="shape=parallelogram;perimeter=parallelogramPerimeter;whiteSpace=wrap;html=1;fixedSize=1;" vertex="1" parent="WIyWlLk6GJQsqaUBKTNV-1">
          <mxGeometry x="40" y="320" width="180" height="40" as="geometry" />
        </mxCell>
        <mxCell id="RyZeqkLJaHpUHVhvsxop-85" value="" style="endArrow=classic;html=1;rounded=0;exitX=0.5;exitY=1;exitDx=0;exitDy=0;" edge="1" parent="WIyWlLk6GJQsqaUBKTNV-1" source="RyZeqkLJaHpUHVhvsxop-82" target="wHJqFlQBdB4jC7zEDMki-21">
          <mxGeometry width="50" height="50" relative="1" as="geometry">
            <mxPoint x="130" y="370" as="sourcePoint" />
            <mxPoint x="370" y="500" as="targetPoint" />
          </mxGeometry>
        </mxCell>
      </root>
    </mxGraphModel>
  </diagram>
</mxfile>
